<svg xmlns="http://www.w3.org/2000/svg" viewBox="0 0 160 120" role="img" aria-labelledby="title desc">
  <title id="title">Ilustrație anxietate socială și vorbit în public</title>
  <desc id="desc">O ilustrație minimalistă cu un microfon, o bulă de dialog și o inimă.</desc>
  <rect width="160" height="120" rx="18" fill="#fffaf4"/>
  <rect x="10" y="10" width="140" height="100" rx="14" fill="#f3e7d8" stroke="#e6d5c3"/>
  <rect x="38" y="28" width="26" height="34" rx="13" fill="#eadcc9" stroke="#8a7461" stroke-width="2.5"/>
  <path d="M51 62v18" stroke="#8a7461" stroke-width="3" stroke-linecap="round"/>
  <path d="M40 80h22" stroke="#8a7461" stroke-width="3" stroke-linecap="round"/>
  <path d="M92 30h28c7 0 12 5 12 12v11c0 7-5 12-12 12h-13l-8 8v-8h-7c-7 0-12-5-12-12V42c0-7 5-12 12-12z" fill="#fffdf9" stroke="#d9c5af"/>
  <circle cx="99" cy="47" r="3" fill="#5e8b52"/>
  <circle cx="110" cy="47" r="3" fill="#5e8b52"/>
  <circle cx="121" cy="47" r="3" fill="#5e8b52"/>
  <path d="M112 84c7-10 22-6 22 5 0 8-7 13-15 19-8-6-15-11-15-19 0-11 15-15 22-5z" fill="#b7794c" opacity="0.9"/>
</svg>