<svg xmlns="http://www.w3.org/2000/svg" viewBox="0 0 160 120" role="img" aria-labelledby="title desc">
  <title id="title">Ilustrație terapie cognitiv-comportamentală</title>
  <desc id="desc">O ilustrație minimalistă cu o foaie, bife și conexiuni mentale.</desc>
  <rect width="160" height="120" rx="18" fill="#fffaf4"/>
  <rect x="10" y="10" width="140" height="100" rx="14" fill="#f3e7d8" stroke="#e6d5c3"/>
  <rect x="34" y="24" width="56" height="72" rx="8" fill="#fffdf9" stroke="#d9c5af"/>
  <circle cx="49" cy="42" r="5" fill="#8fb57e"/>
  <path d="M46 42l2 2 4-5" fill="none" stroke="#fff" stroke-linecap="round" stroke-linejoin="round" stroke-width="2"/>
  <line x1="58" y1="42" x2="79" y2="42" stroke="#8a7461" stroke-width="2.5" stroke-linecap="round"/>
  <circle cx="49" cy="58" r="5" fill="#8fb57e"/>
  <path d="M46 58l2 2 4-5" fill="none" stroke="#fff" stroke-linecap="round" stroke-linejoin="round" stroke-width="2"/>
  <line x1="58" y1="58" x2="79" y2="58" stroke="#8a7461" stroke-width="2.5" stroke-linecap="round"/>
  <circle cx="49" cy="74" r="5" fill="#8fb57e"/>
  <path d="M46 74l2 2 4-5" fill="none" stroke="#fff" stroke-linecap="round" stroke-linejoin="round" stroke-width="2"/>
  <line x1="58" y1="74" x2="79" y2="74" stroke="#8a7461" stroke-width="2.5" stroke-linecap="round"/>
  <circle cx="115" cy="42" r="7" fill="#b7794c"/>
  <circle cx="104" cy="64" r="7" fill="#d7a273"/>
  <circle cx="126" cy="66" r="7" fill="#8fb57e"/>
  <line x1="115" y1="42" x2="104" y2="64" stroke="#8a7461" stroke-width="2.5"/>
  <line x1="115" y1="42" x2="126" y2="66" stroke="#8a7461" stroke-width="2.5"/>
  <line x1="104" y1="64" x2="126" y2="66" stroke="#8a7461" stroke-width="2.5"/>
</svg>